<?xml version="1.0" encoding="utf-8"?>
<!-- Generator: Adobe Illustrator 25.0.1, SVG Export Plug-In . SVG Version: 6.00 Build 0)  -->
<svg version="1.1" id="图层_1" xmlns="http://www.w3.org/2000/svg" xmlns:xlink="http://www.w3.org/1999/xlink" x="0px" y="0px"
	 viewBox="0 0 893.1 169.3" style="enable-background:new 0 0 893.1 169.3;" xml:space="preserve">
<style type="text/css">
	.st0{fill:#2280C4;}
	.st1{fill:#EA5749;}
</style>
<rect x="405.1" y="34.4" class="st0" width="13.5" height="46.5"/>
<rect x="445.4" y="15.5" class="st0" width="69" height="13.5"/>
<rect x="442.6" y="107" class="st0" width="74.5" height="13.5"/>
<path class="st0" d="M449.6,38.4v59.8h59.8V38.4H449.6z M495.9,84.6h-32.8v-9.9H488V61.2h-24.9v-9.4h32.8V84.6z"/>
<rect x="539.6" y="15.6" transform="matrix(0.7186 -0.6954 0.6954 0.7186 135.8659 387.1651)" class="st0" width="13.5" height="20.2"/>
<polygon class="st0" points="443.4,50.5 443.4,32.4 435.6,32.4 435.6,11.7 422,11.7 422,124.5 435.6,124.5 435.6,50.5 "/>
<polygon class="st0" points="662.8,76.6 684.4,55.3 694,65.7 704,56.6 699.2,51.3 708,51.3 708,38.9 691.8,38.9 691.8,31.3 
	708.4,31.3 708.4,17.7 677.8,17.7 666.3,11.8 656.2,31.3 678.3,31.3 678.3,38.9 656.2,38.9 656.2,51.3 669.1,51.3 653.3,66.9 "/>
<path class="st0" d="M713.4,67.2h45.8V17.7h-45.8V67.2z M726.9,31.3h18.7v22.3h-18.7V31.3z"/>
<path class="st0" d="M671.1,124.2h80.3V71h-80.3V124.2z M738,84.5v26.1h-53.3v-6.8h45.2V91.4h-45.2v-6.8H738z"/>
<polygon class="st0" points="814.5,78.7 809.8,66 804.3,68 804.3,47.3 810.9,47.3 810.9,33.8 804.3,33.8 804.3,13.6 790.8,13.6 
	790.8,33.8 779.5,33.8 779.5,47.3 790.8,47.3 790.8,72.9 777.2,77.8 781.8,90.6 790.8,87.3 790.8,109.2 781.7,109.2 781.7,122.8 
	804.3,122.8 804.3,82.4 "/>
<polygon class="st0" points="829,39.6 876.1,39.6 876.1,48.6 889.2,48.6 889.2,26.1 859.3,26.1 859.3,13.2 845.8,13.2 845.8,26.1 
	816,26.1 816,48.6 829,48.6 "/>
<rect x="816.2" y="51.8" transform="matrix(0.8283 -0.5603 0.5603 0.8283 110.2016 475.6442)" class="st0" width="29.6" height="12.4"/>
<rect x="868.2" y="43.3" transform="matrix(0.5603 -0.8283 0.8283 0.5603 336.3179 749.7307)" class="st0" width="12.4" height="29.6"/>
<polygon class="st0" points="859.3,85.7 880.6,85.7 880.6,72.1 824.5,72.1 824.5,85.7 845.8,85.7 845.8,109.2 813.8,109.2 
	813.8,122.8 891.3,122.8 891.3,109.2 859.3,109.2 "/>
<polygon class="st0" points="563.1,91.1 573,100.3 600.2,71.1 627.4,100.3 637.3,91.1 606.9,58.5 606.9,49.3 639.2,49.3 639.2,35.8 
	606.9,35.8 606.9,15.1 593.4,15.1 593.4,35.8 564,35.8 564,49.3 593.4,49.3 593.4,58.5 "/>
<polygon class="st0" points="556.9,94.8 556.9,56.5 556.9,50 556.9,42.9 530.6,42.9 530.6,56.5 543.4,56.5 543.4,95 529.3,111.1 
	539.5,120 550.4,107.6 563.2,120.9 642.5,120.9 642.5,107.4 569,107.4 "/>
<polygon class="st0" points="419.6,152.4 410.8,152.4 410.8,144.6 407,144.6 407,164.8 410.8,164.8 410.8,156.1 419.6,156.1 
	419.6,164.8 423.4,164.8 423.4,144.6 419.6,144.6 "/>
<polygon class="st0" points="429.5,165.1 441.6,165.1 441.6,161.3 433.3,161.3 433.3,156.1 441.6,156.1 441.6,152.4 433.3,152.4 
	433.3,148.2 441.6,148.2 441.6,144.4 429.5,144.4 "/>
<polygon class="st0" points="601.1,165.1 613.2,165.1 613.2,161.3 604.9,161.3 604.9,156.1 613.2,156.1 613.2,152.4 604.9,152.4 
	604.9,148.2 613.2,148.2 613.2,144.4 601.1,144.4 "/>
<polygon class="st0" points="685.3,165.1 697.5,165.1 697.5,161.3 689.1,161.3 689.1,156.1 697.5,156.1 697.5,152.4 689.1,152.4 
	689.1,148.2 697.5,148.2 697.5,144.4 685.3,144.4 "/>
<polygon class="st0" points="460.8,158.5 452.6,144.8 447.4,144.8 447.4,164.8 451.2,164.8 451.2,149.8 460.1,164.6 464.6,164.6 
	464.6,144.9 460.8,144.9 "/>
<polygon class="st0" points="716.6,158.5 708.4,144.8 703.2,144.8 703.2,164.8 707,164.8 707,149.8 715.8,164.6 720.4,164.6 
	720.4,144.9 716.6,144.9 "/>
<polygon class="st0" points="810,158.5 801.8,144.8 796.5,144.8 796.5,164.8 800.3,164.8 800.3,149.8 809.2,164.6 813.8,164.6 
	813.8,144.9 810,144.9 "/>
<polygon class="st0" points="572.7,158.5 564.5,144.8 559.2,144.8 559.2,164.8 563,164.8 563,149.8 571.9,164.6 576.5,164.6 
	576.5,144.9 572.7,144.9 "/>
<path class="st0" d="M492,144.7v20.1h12.9l3.3-4.1v-11.9l-3.3-4.1H492z M504.3,159.4L503,161h-7.3v-12.4h7.3l1.3,1.6V159.4z"/>
<polygon class="st0" points="479.3,157.4 482.5,157.4 482.5,159.9 481.4,161.1 474.4,161.1 473.3,159.9 473.3,159.4 473.3,150.2 
	473.3,149.6 474.4,148.5 481.4,148.5 483.1,150.2 485.7,147.5 482.9,144.7 472.9,144.7 469.5,148 469.5,150.2 469.5,159.4 
	469.5,161.5 472.9,164.8 482.9,164.8 486.3,161.5 486.3,153.6 479.3,153.6 "/>
<polygon class="st0" points="672.8,157.4 676,157.4 676,159.9 674.8,161.1 667.9,161.1 666.8,159.9 666.8,159.4 666.8,150.2 
	666.8,149.6 667.9,148.5 674.8,148.5 676.5,150.2 679.2,147.5 676.3,144.7 666.3,144.7 663,148 663,150.2 663,159.4 663,161.5 
	666.3,164.8 676.3,164.8 679.8,161.5 679.8,153.6 672.8,153.6 "/>
<polygon class="st0" points="755.9,150.2 755.9,149.6 757,148.5 763.9,148.5 765.6,150.2 768.3,147.5 765.4,144.7 755.4,144.7 
	752.1,148 752.1,150.2 752.1,159.4 752.1,161.5 755.4,164.8 765.4,164.8 768.3,162.1 765.6,159.4 763.9,161.1 757,161.1 
	755.9,159.9 755.9,159.4 "/>
<path class="st0" d="M776.8,144.7l-3.4,3.3v13.5l3.4,3.3h10l3.4-3.3V148l-3.4-3.3H776.8z M786.5,159.9l-1.2,1.1h-6.9l-1.1-1.1v-10.3
	l1.1-1.1h6.9l1.2,1.1V159.9z"/>
<path class="st0" d="M861.4,144.7L858,148v13.5l3.4,3.3h10l3.4-3.3V148l-3.4-3.3H861.4z M871,159.9l-1.2,1.1H863l-1.1-1.1v-10.3
	l1.1-1.1h6.9l1.2,1.1L871,159.9z"/>
<rect x="549" y="144.8" class="st0" width="3.8" height="20.1"/>
<rect x="653.5" y="144.8" class="st0" width="3.8" height="20.1"/>
<polygon class="st0" points="581.2,148.2 586.6,148.2 586.6,164.8 590.4,164.8 590.4,148.2 595.7,148.2 595.7,144.4 581.2,144.4 "/>
<polygon class="st0" points="725.1,148.2 730.4,148.2 730.4,164.8 734.2,164.8 734.2,148.2 739.5,148.2 739.5,144.4 725.1,144.4 "/>
<polygon class="st0" points="818.4,148.2 823.8,148.2 823.8,164.8 827.5,164.8 827.5,148.2 832.9,148.2 832.9,144.4 818.4,144.4 "/>
<polygon class="st0" points="622.7,144.6 618.9,144.6 618.9,165.1 631,165.1 631,161.3 622.7,161.3 "/>
<polygon class="st0" points="639.9,144.6 636.1,144.6 636.1,165.1 648.2,165.1 648.2,161.3 639.9,161.3 "/>
<polygon class="st0" points="884.8,161.3 884.8,144.6 881,144.6 881,165.1 893.1,165.1 893.1,161.3 "/>
<polygon class="st0" points="518.9,144.7 512,164.8 516,164.8 518,158.9 523.7,158.9 522.4,155.1 519.3,155.1 521.6,148.5 
	522.4,148.5 528,164.8 532,164.8 525.1,144.7 "/>
<path class="st0" d="M852.1,154.4V148l-3.5-3.4H838v20.3h3.8v-7.3h2.8l4.2,7.3h4.4l-4.2-7.3L852.1,154.4z M848.3,152.8l-1,0.9h-5.6
	v-5.4h5.3l1.2,1.2L848.3,152.8z"/>
<polygon class="st0" points="291.1,31.7 246.3,0 150,24 136.1,48 234.6,37.7 265.9,125.6 178.6,134.8 158.7,169.3 344,169.2 "/>
<polygon class="st1" points="92.7,169.3 122.3,117.9 66.2,123.4 39.7,169.2 0,169.2 72.8,43.2 119.1,31.7 86,89 185,77.9 
	132.3,169.2 "/>
</svg>
